<?xml version="1.0" encoding="utf-8"?>
<!-- Generator: Adobe Illustrator 12.0.0, SVG Export Plug-In . SVG Version: 6.00 Build 51448)  -->
<!DOCTYPE svg PUBLIC "-//W3C//DTD SVG 1.1//EN" "http://www.w3.org/Graphics/SVG/1.1/DTD/svg11.dtd" [
	<!ENTITY ns_svg "http://www.w3.org/2000/svg">
	<!ENTITY ns_xlink "http://www.w3.org/1999/xlink">
]>
<svg  version="1.1" id="レイヤー_1" xmlns="&ns_svg;" xmlns:xlink="&ns_xlink;" width="225" height="173" viewBox="0 0 225 173"
	 overflow="visible" enable-background="new 0 0 225 173" xml:space="preserve">
<g>
	<rect fill="#5FC2D0" width="225" height="173"/>
	<g>
		<polygon opacity="0.1" fill="#060001" enable-background="new    " points="173.23,67.438 173.23,133.002 96.183,133.002 
			62.327,93.735 122.338,45.357 152.982,45.357 		"/>
		<path fill="#E0901D" d="M154.717,48.592H82.511c-3.331,0-6.641,3.208-7.392,7.156l-9.95,49.75
			c-0.727,3.809,1.33,6.892,4.591,6.892h37.116l19.002,14.759l-0.38-14.759h17.519c3.261,0,6.569-3.083,7.39-6.892l8.797-49.75
			C160.054,51.8,158.046,48.592,154.717,48.592z"/>
		<g>
			<path fill="#FFFFFF" d="M154.784,52l-8.795,49.752c-0.826,3.813-4.135,6.891-7.387,6.891H65.215
				c-3.184-0.082-5.177-3.131-4.471-6.891L70.704,52c0.746-3.949,4.053-7.148,7.387-7.148h72.291
				c2.263,0.041,3.889,1.539,4.417,3.745c0.069,0.271,0.123,0.544,0.136,0.83C155.029,50.229,154.974,51.087,154.784,52z"/>
			<polygon fill="#FFFFFF" points="90.389,99.272 120.837,99.272 121.459,123.403 			"/>
			<g>
				<polygon fill="#E0901D" points="141.911,63.402 79.327,63.649 80.532,57.789 142.976,57.542 				"/>
				<polygon fill="#E0901D" points="138.955,79.682 75.977,79.93 77.198,73.996 140.032,73.748 				"/>
				<polygon fill="#E0901D" points="120.137,96.125 72.606,96.314 73.843,90.303 121.265,90.115 				"/>
			</g>
		</g>
		<path opacity="0.04" fill="#060001" enable-background="new    " d="M154.784,52l-8.795,49.752
			c-0.826,3.813-4.135,6.891-7.387,6.891h-17.524l0.381,14.76l-19-14.76H76.334l70.55-63.791h3.497
			c2.263,0.041,3.889,1.539,4.419,3.745c0.067,0.271,0.121,0.544,0.134,0.83C155.029,50.229,154.974,51.087,154.784,52z"/>
	</g>
</g>
</svg>
